<?xml version="1.0" encoding="UTF-8"?>
<svg width="59px" height="27px" viewBox="0 0 59 27" version="1.1" xmlns="http://www.w3.org/2000/svg" xmlns:xlink="http://www.w3.org/1999/xlink">
    <!-- Generator: Sketch 55.2 (78181) - https://sketchapp.com -->
    <title>Group 22</title>
    <desc>Created with Sketch.</desc>
    <defs>
        <polygon id="path-1" points="0.238866477 0.208052632 2.38833553 0.208052632 2.38833553 2.29239364 0.238866477 2.29239364"></polygon>
    </defs>
    <g id="Page-1" stroke="none" stroke-width="1" fill="none" fill-rule="evenodd">
        <g id="Desktop-HD" transform="translate(-370.000000, -1231.000000)">
            <g id="Group" transform="translate(7.000000, 1016.000000)">
                <g id="Group-7">
                    <g id="Group-6" transform="translate(363.000000, 188.000000)">
                        <g id="Group-5">
                            <g id="Group-4" transform="translate(0.000000, 27.000000)">
                                <g id="Group-22">
                                    <g id="Group-3" transform="translate(56.282895, 0.180222)">
                                        <mask id="mask-2" fill="white">
                                            <use xlink:href="#path-1"></use>
                                        </mask>
                                        <g id="Clip-2"></g>
                                        <path d="M1.31989211,2.10797016 C1.72823421,2.10719276 2.07136579,1.78114013 2.13424737,1.46207434 C2.27437237,0.753298026 1.76433289,0.375620395 1.29233289,0.395804605 C0.170944737,0.442383553 0.252069737,2.10952171 1.31989211,2.10797016 M1.09553684,0.226567763 C1.87068816,0.0848901316 2.65282632,0.764554605 2.30231974,1.65848224 C2.20489211,1.90845592 1.85632632,2.22169934 1.54463553,2.27642961 C0.968609211,2.3769625 0.339017105,1.99152171 0.253234211,1.43412697 C0.157747368,0.812298026 0.549398684,0.3267125 1.09553684,0.226567763" id="Fill-1" fill="#000000" mask="url(#mask-2)"></path>
                                    </g>
                                    <path d="M52.1291395,6.58296382 C51.9991066,7.02701645 52.1101197,7.42449013 52.1291395,7.84641776 C52.1481592,8.29396382 52.1357382,8.81525987 52.1566987,9.30589145 C52.1799882,9.8271875 52.1151658,10.3601283 52.1854224,10.7657533 C52.2102645,10.9097599 52.3177842,11.0448388 52.3534947,11.1865164 C52.4474289,11.5626414 52.4757645,11.994273 52.6061855,12.2815099 C52.6554816,12.3901941 52.7377711,12.4526875 52.7746461,12.562148 C52.7905605,15.8444112 52.72535,19.0443849 52.7463105,22.3309178 C53.0156921,22.0557138 53.2447053,21.7308257 53.4205408,21.3488783 C53.514475,21.1439309 53.5921066,20.9172467 53.6445079,20.7029836 C53.7081658,20.4467993 53.6782776,20.2053651 53.7291263,19.9169638 C53.8133566,19.4434112 54.2158763,19.0191546 54.2904026,18.5417204 C54.3536724,18.1392007 54.2904026,17.6446875 54.2904026,17.1944243 C54.2904026,16.2647862 54.3230079,15.4527599 54.3746329,14.5832862 C54.4006395,14.1450559 54.3691987,13.6617993 54.4871987,13.3202204 C54.5531855,13.1276941 54.7690013,12.9918388 54.8520671,12.7865033 C54.9518237,12.5415757 54.9471658,12.1534178 55.0488632,11.8607467 C55.1284355,11.6301809 55.2980605,11.4624967 55.328725,11.2990822 C55.3749158,11.0572599 55.328725,10.6776414 55.328725,10.3442138 C55.328725,10.0204901 55.3787974,9.62379276 55.328725,9.38973355 C55.3073763,9.28609539 55.2076197,9.21816776 55.1610408,9.10948355 C55.0181987,8.77877303 54.9929684,8.24971382 54.8800145,8.01487829 C54.6665276,7.57199013 54.0625539,7.51454276 54.0939947,6.94744408 C53.7485342,7.0099375 53.6445079,6.60664145 53.3642579,6.52668092 C53.0063763,6.42498355 52.6446132,6.54764145 52.1566987,6.49912171 C52.1244816,6.50377961 52.1264224,6.54298355 52.1291395,6.58296382 M48.1143592,0.491990132 C48.5530408,0.561858553 48.8697776,0.393009868 49.2098039,0.491990132 C49.3301329,0.526148026 49.3565276,0.672095395 49.4904421,0.715957237 C49.7066461,0.787378289 49.8580276,0.663944079 50.1080013,0.715957237 C50.1747645,0.782720395 50.2248368,0.885582237 50.3044092,0.940700658 C50.4938303,1.06995724 50.8940211,1.12662829 51.1746592,1.27723355 C51.3512711,1.37233224 51.5038171,1.57572697 51.6517053,1.61415461 C51.8523829,1.66616776 52.0546132,1.55515461 52.2409289,1.61415461 C52.3958039,1.6630625 52.4338434,1.88353618 52.57785,1.95107566 C52.7812447,1.98639803 53.0071526,1.90294408 53.16785,1.95107566 C53.3207842,1.99687829 53.3021526,2.11022039 53.4205408,2.17581908 L54.2345079,2.17581908 C54.3618237,2.18862829 54.3385342,2.35243092 54.4305276,2.4005625 C54.7266921,2.46926645 55.0329487,2.30779276 55.328725,2.4005625 C55.4692382,2.44364803 55.7351263,2.84112171 55.8628303,2.96222697 C56.0638961,3.15203618 56.3185276,3.27663487 56.4520539,3.46722039 C56.5999421,3.67682566 56.6818434,3.99860855 56.788975,4.25285197 C56.9617053,4.66585197 57.0513697,5.05439803 57.2947447,5.34745724 C57.3126,5.69330592 57.2823237,6.03216776 57.2656329,6.38655592 C57.2516592,6.70678618 57.2062447,7.09455592 57.2376855,7.39731908 C57.2699026,7.69620066 57.4787316,8.01565461 57.5191,8.21128618 C57.6165276,8.68522697 57.5524816,9.27949671 57.5749947,9.81127303 C57.5947908,10.2910362 57.6510737,10.8076743 57.5466592,11.1865164 C57.4857184,11.4085428 57.2260408,11.6542467 57.1821789,11.9166414 C57.1332711,12.2069836 57.2392382,12.5334243 57.2376855,12.815227 C57.2349684,13.5108059 56.9442382,13.8422928 56.5925671,14.2747007 C56.5362842,14.5953191 56.5537513,14.9547533 56.4796132,15.2854638 C56.4256592,15.5315559 56.3177513,15.7465954 56.3115408,16.0155888 C56.3049421,16.3094243 56.3515211,16.6347007 56.3678237,16.9417336 C56.41285,17.783648 56.4850474,18.779273 56.4237184,19.6922204 C56.3988763,20.0667928 56.228475,20.4145822 56.1993632,20.7588783 C56.1508434,21.3403388 56.2494355,21.8387336 56.1430803,22.3592533 C56.0930079,22.6065099 55.9913105,22.8440625 55.9466724,23.0889901 C55.8997053,23.3498322 55.8678763,23.6067928 55.8065474,23.8474507 C55.6831132,24.3283783 55.4366329,24.6982928 55.2165474,25.0821809 C55.0496395,25.0980954 54.989475,25.3348717 54.8237316,25.4474375 C54.5791921,25.6139572 54.0361592,25.7047862 53.6445079,25.8119178 C53.4562513,25.8639309 53.2493632,25.918273 53.0556724,25.9807664 C52.8503368,26.0467533 52.6341329,26.1783388 52.4936197,26.1771743 C52.2793566,26.1756217 52.1019684,25.9687336 51.9327316,25.9244836 C51.5655342,26.220648 50.7694224,26.3281678 50.1918434,26.2330691 C50.1759289,26.1073059 50.3117842,25.9927993 50.3882513,25.8965362 C50.8489947,25.3189572 51.1063434,24.2511349 50.6133829,23.3975757 C50.9169224,23.1965099 51.3749487,23.1487664 51.5682513,22.8366875 C51.5729092,22.6907401 51.3578697,22.7652664 51.3431197,22.6398914 C51.2130868,22.2622138 51.0407447,21.8604704 50.8656855,21.4610559 C50.8125079,21.340727 50.7131395,21.2033191 50.6976132,21.0961875 C50.6653961,20.8772664 50.7515671,20.4289441 50.7814553,20.1420954 C50.8753895,19.2473914 50.9860145,18.2393454 51.0904289,17.3341612 C50.8788829,17.0150954 50.6805342,16.6676941 50.5287645,16.2954507 C50.3832053,15.9391217 50.1836921,15.5187467 50.1355605,15.0886678 C50.1153763,14.8992467 50.2011592,14.6717862 50.1638961,14.4711086 C50.1398303,14.3402993 49.9725342,14.216477 49.9395408,14.0786809 C49.8917974,13.8826612 49.9205211,13.5802862 49.9112053,13.3202204 C49.8964553,12.9083849 49.8630737,12.5637007 49.9112053,12.1693322 C49.9325539,12.0583191 49.7722447,12.0229967 49.7431329,11.9166414 C49.65735,11.6065033 49.8580276,11.0300888 49.826975,10.5693454 C49.8071789,10.2646414 49.6631724,9.98594408 49.6305671,9.72704276 C49.5541,9.12306908 49.6305671,8.31375987 49.6305671,7.65000987 L49.6305671,6.61129934 C49.6305671,6.26312171 49.5672974,5.82062171 49.6305671,5.60053618 C49.6689947,5.46778618 49.7687513,5.48098355 49.826975,5.34745724 C49.9166395,4.76172697 49.7043171,4.29283224 49.826975,3.83208882 C49.8599684,3.70787829 50.0167842,3.64266776 50.0513303,3.52311513 C50.0940276,3.38182566 50.1048961,2.67770724 50.0513303,2.48440461 C50.0148434,2.34816118 49.7606,2.12497039 49.6022316,1.97902303 C49.0929684,1.50896382 48.5860342,1.06452303 48.1423697,0.575832237 C48.1283961,0.553319079 48.1132579,0.530029605 48.1143592,0.491990132" id="Fill-4" fill="#0F7CD4"></path>
                                    <path d="M57.4227041,1.33371053 C57.6310737,1.32594737 57.8960552,1.36359868 58.0073759,1.27703947 C58.1572308,0.992519737 57.7595207,0.947105263 57.4227041,0.968842105 L57.4227041,1.33371053 Z M57.1819849,0.799993421 C57.6020542,0.811638158 58.1857746,0.748756579 58.2832992,1.02473684 C58.3584645,1.23822368 58.2281145,1.45132237 57.9383951,1.50217105 C58.0368712,1.70246053 58.2162213,1.83753947 58.3166003,2.0355 C57.7457246,2.08984211 57.9907254,1.47888158 57.4574324,1.50217105 C57.3775098,1.62405263 57.4460149,1.86665132 57.4227041,2.0355 L57.1819849,2.0355 L57.1819849,0.799993421 Z" id="Fill-6" fill="#0F7CD4"></path>
                                    <path d="M44.0441599,3.83208882 C44.0724954,5.70300987 44.0061204,7.69620066 44.0441599,9.53063487 C44.0464888,9.62689803 43.9936993,9.79147697 44.1004428,9.86755592 C44.305002,9.92034539 44.5662322,9.88929276 44.7742849,9.81127303 C45.4128046,9.57177961 45.4927651,9.01554934 45.728377,8.35179934 C45.780002,8.20740461 45.8785941,8.07271382 45.8972257,7.95859539 C45.9294428,7.75714145 45.8754888,7.56034539 45.9247849,7.36859539 C45.9593309,7.23700987 46.0967388,7.08562829 46.1215809,6.94744408 C46.1798046,6.62527303 46.1600086,6.10475329 46.0373507,5.76899671 C45.9069296,5.41111513 45.482673,4.92397697 45.2233836,4.61810855 C44.892673,4.22839803 44.4983046,3.77464145 44.1004428,3.74785855 C44.0655086,3.75950329 44.0426072,3.78395724 44.0441599,3.83208882 M46.0656862,10.3162664 C46.089752,10.5464441 46.1351664,10.8414441 45.9810678,10.9621612 C46.5268178,10.8379507 46.812502,10.9353783 47.1602914,11.271523 C47.2262783,11.3347928 47.2934296,11.4574507 47.3846467,11.5513849 C47.4882849,11.6581283 47.6004625,11.6946151 47.6377257,11.7761283 C47.7013836,11.9166414 47.6571336,12.1157664 47.6936204,12.2256151 C47.7759099,12.3575888 47.9932783,12.3564243 48.1143836,12.4499704 C48.1838638,12.756227 48.2195743,13.0923717 48.3115678,13.432398 C48.336798,13.5271086 48.403173,13.6183257 48.4241336,13.7134243 C48.5460151,14.2882862 48.420252,14.9365099 48.5075875,15.5098191 C48.5498967,15.7877401 48.6884691,16.0252928 48.7043836,16.2954507 C48.7777454,16.4421743 48.9357257,16.2147138 48.9850217,16.3517336 C49.1717257,17.3473586 49.5129164,18.5374507 49.2377125,19.5800428 C49.2590612,19.7081349 49.472548,19.644477 49.5187388,19.7485033 C49.6417849,19.9627664 49.7244625,20.2162336 49.799377,20.4786283 C49.7888967,20.5768322 49.696127,20.6831875 49.686423,20.7872138 C49.6751664,20.9215164 49.7582322,21.0919178 49.7710414,21.264648 C49.7865678,21.4680428 49.7652191,21.7083125 49.7430941,21.9097664 C49.7178638,22.1321809 49.6468309,22.3472204 49.6584757,22.4997664 C49.6681796,22.6266941 49.7597849,22.7481875 49.7710414,22.8646349 C49.7954954,23.1161612 49.6600283,23.398352 49.6021928,23.7069375 C49.4477059,24.5352664 49.317673,25.4012467 49.1251467,26.1771743 C48.8068572,26.0316151 48.5172914,26.0106546 48.255673,25.8682007 C48.0060875,25.7331217 47.783673,25.4528717 47.5531072,25.2506414 C47.1121599,24.8640362 46.7527257,24.534102 45.8413309,24.5767993 C45.8060086,24.1921349 45.9857257,23.8101875 46.1215809,23.4259112 C46.2481204,23.0676414 46.3831993,22.7039375 46.4860612,22.3029704 C46.6789757,21.5514967 46.6863507,20.4487401 46.6273507,19.4958125 C46.5904757,18.9093059 46.4495743,18.250602 46.318377,17.6710822 C46.1829099,17.0733191 46.0330809,16.470898 45.7842717,16.0714836 C45.7105217,15.9519309 45.6247388,15.8405296 45.4760743,15.7908454 C45.4729691,15.2206414 45.7605941,14.7591217 45.6720941,14.2467533 C45.6484164,14.103523 45.5129493,13.8830493 45.4197914,13.7134243 C45.1686533,13.255398 44.811548,12.6719967 44.4373638,12.3649638 C44.4886007,12.7620493 44.3597322,13.0089178 44.2130086,13.3202204 C44.1346007,13.484023 44.0134954,13.6761612 43.9882651,13.8252138 C43.9238309,14.2052204 44.0554164,14.7218586 44.1004428,15.2012336 C44.1850612,16.1060296 44.275502,16.9689046 44.3810809,17.8954375 C44.4334822,18.3534638 44.5728309,18.8537993 44.5215941,19.2155625 C44.5033507,19.3444309 44.4001007,19.4294375 44.3810809,19.5517072 C44.4327059,19.7391875 44.5530349,19.8144901 44.577877,20.0578651 C44.6236796,20.5034704 44.6395941,21.1850757 44.5499296,21.657852 C44.5212059,21.8084572 44.420673,21.9540164 44.4090283,22.1065625 C44.3834099,22.4473651 44.5080086,22.8390164 44.5499296,23.2015559 C44.5697257,23.3781678 44.5883572,23.5769046 44.6054362,23.7628322 C44.6423112,24.1502138 44.7001467,24.4890757 44.4090283,24.6330822 C44.5246993,25.3670888 44.3131533,26.0145362 44.2130086,26.626273 C44.0546401,26.4620822 44.0441599,26.2237533 43.9603178,26.0370493 C43.5515875,25.1272072 42.8843441,24.3167336 42.107252,23.7348849 C41.7943967,23.5004375 41.4054625,23.3525493 41.1807191,23.005148 C41.4295283,22.1973914 41.6678572,21.1633388 42.0230217,20.394398 C42.0952191,20.239523 42.2431072,20.1032796 42.2757125,19.9452993 C42.3479099,19.592852 42.245048,19.1856743 42.0230217,18.9908191 L42.0230217,16.1553257 C42.0230217,15.1822138 42.1002651,14.2110428 42.0230217,13.3202204 C42.0055546,13.1164375 41.9217125,12.9211941 41.8828967,12.7026612 C41.8429164,12.4740362 41.8728046,12.2143586 41.8266138,12.0012599 C41.787798,11.8180493 41.6356401,11.6503651 41.6022586,11.4675428 C41.5649954,11.2684178 41.6228309,11.0564836 41.6022586,10.8499836 C41.5774164,10.5937993 41.4698967,10.3403322 41.4341862,10.0919112 C41.4108967,9.93703618 41.4341862,9.7829375 41.4054625,9.64320066 C41.3763507,9.49492434 41.2897914,9.36605592 41.2657257,9.22166118 C41.2439888,9.0970625 41.251752,8.96004276 41.2373901,8.82884539 C41.2238046,8.71200987 41.1923638,8.58430592 41.1807191,8.46397697 C41.1516072,8.16587171 41.249423,7.83749013 41.1807191,7.53705592 C41.141127,7.3639375 40.924923,7.27388487 40.9563638,7.0320625 C40.9241467,6.93347039 40.7976072,6.92920066 40.7595678,6.83604276 C40.7172586,6.22469408 40.7172586,5.48137171 40.7595678,4.87079934 C41.4244822,4.32815461 42.1941993,3.89070066 42.697252,3.18619408 C42.5485875,3.07207566 42.3021072,3.05732566 42.107252,2.99017434 C42.0001204,3.00958224 41.942673,3.12370066 41.8266138,3.15824671 C41.701627,3.19550987 41.588673,3.19550987 41.4341862,3.15824671 C41.1892586,2.27052961 40.4428309,1.88470066 39.8054757,1.38941118 C39.6801007,1.37660197 39.5283309,1.34166776 39.3843243,1.30595724 C39.2818507,1.2795625 39.0547783,1.30129934 39.076127,1.13749671 C39.0792322,0.988055921 39.3334757,1.05520724 39.4685546,1.05287829 C39.6998967,1.04899671 39.9277454,1.03968092 40.1423967,1.02493092 C40.7525809,0.981069079 41.4644625,1.07267434 41.9950743,0.996595395 C42.2011862,0.967095395 42.3622717,0.830075658 42.5563507,0.82812585 C42.7690612,0.826970395 42.8893901,0.938759868 43.0058375,1.05287829 C43.3023901,1.09052961 43.6583309,1.00358224 43.9882651,1.05287829 C44.2630809,1.09363487 44.5763243,1.24229934 44.8585151,1.33351645 C45.1399296,1.42473355 45.4197914,1.57378618 45.7004296,1.61415461 C45.9150809,1.64520724 46.1277914,1.59513487 46.318377,1.64210197 C46.937877,1.79542434 47.1994954,2.34699671 47.6936204,2.56863487 C47.904002,3.11089145 48.2180217,3.6764375 48.4800283,4.22490461 C48.6682849,4.6204375 48.7858967,4.86769408 48.7602783,5.51591776 C48.7529033,5.70378618 48.7602783,5.93279934 48.7323309,6.07758224 C48.6927388,6.28408224 48.5409691,6.43624013 48.5075875,6.63885855 C48.4590678,6.94045724 48.5444625,7.22342434 48.5075875,7.53705592 C48.4520809,8.01487829 48.1306862,8.73607566 47.8904164,9.13743092 C47.4844033,9.81360197 46.9708704,10.2592072 46.0656862,10.3162664" id="Fill-8" fill="#0F7CD4"></path>
                                    <path d="M12.0707789,1.10892829 C12.2376868,1.25992171 12.3335618,1.48194803 12.547825,1.58597434 C12.6716474,1.5789875 12.7651934,1.54133618 12.9126934,1.55802697 C13.2441803,1.92755329 13.5601408,2.31454671 13.9238447,2.65302039 L13.9238447,3.66339539 C13.9238447,3.99565855 13.9902197,4.40050724 13.9238447,4.64621118 C13.8861934,4.78129013 13.7049237,4.86396776 13.698325,4.98274408 C13.6831868,5.26299408 14.0309763,5.33247434 14.1198645,5.4877375 C14.0697921,5.77225724 14.1854632,6.14061908 14.1198645,6.38671118 C14.0783316,6.53809276 13.9537329,6.53421118 13.9238447,6.66696118 L13.9238447,9.92321776 C13.9238447,10.2756651 13.8396145,10.7216586 13.9238447,10.9902638 C13.9735289,11.1521257 14.2537789,11.2580928 14.3162724,11.3834678 C14.3764368,11.5026322 14.4148645,11.8480928 14.42845,12.0852572 C14.4886145,13.1499743 14.4191342,14.257777 14.3725553,15.2852309 C14.3609105,15.531323 14.3632395,15.7941059 14.3162724,15.9311257 C14.2778447,16.0421388 14.1454829,16.1209349 14.1198645,16.2113757 C13.9944895,16.6445599 14.2137987,17.2186454 14.1198645,17.6153428 C14.1307329,17.7449875 14.2980289,17.7170401 14.3162724,17.8400862 C14.3725553,18.1921454 14.3477132,18.6897638 14.3162724,19.0472572 C14.2328184,19.1699151 14.1148184,19.1559414 14.0356342,19.2716125 C14.0010882,19.322073 13.9187987,19.4982967 13.9238447,19.580198 C13.9351013,19.781652 14.2052592,19.870152 14.1198645,20.253652 C14.0938579,20.3712638 14.0476671,20.4015401 13.9238447,20.5346783 C13.8632921,20.8017309 14.0022526,21.1083757 13.9238447,21.4049283 C13.8951211,21.512448 13.7324829,21.6017243 13.698325,21.713902 C13.5985684,22.0504349 13.7949763,22.6194743 13.698325,23.0049151 C13.6664961,23.1326191 13.51395,23.2032638 13.5023053,23.3701717 C13.4871671,23.5751191 13.786825,23.761823 13.698325,24.0440138 C13.9506276,24.0595401 14.2072,24.0902046 14.4851211,24.0995204 C14.7261671,24.108448 15.0514434,24.1592967 15.2707526,24.0719612 C15.4011737,24.0195599 15.4248513,23.8774941 15.5234434,23.7909349 C15.6297987,23.6973888 15.8487197,23.5580401 15.9729303,23.5382441 C16.1747724,23.5064151 16.4767592,23.6088888 16.7306145,23.6787572 C17.2418184,23.8192704 18.0487987,23.978027 18.5832921,23.6787572 C18.7117724,23.6061717 18.728075,23.4932178 18.8918776,23.4260664 C19.1868776,23.3053493 19.745825,23.3057375 20.1832789,23.2859414 C22.0181013,23.2024875 24.1650026,23.2933164 26.0506737,23.3138888 L26.0506737,24.6328493 C26.0506737,25.0652572 25.9831342,25.5512309 26.0506737,25.9246388 C26.1186013,26.3046454 26.43495,26.5616059 26.5277197,26.8507836 L24.3940158,26.8507836 C24.1444303,26.8507836 23.8486539,26.8977507 23.6922263,26.8507836 C23.5637461,26.8127441 23.5451145,26.6869809 23.4395355,26.6260401 C23.0416737,26.6466125 22.7206671,26.6535993 22.5976211,26.4016849 C22.268075,26.4602967 22.1900553,26.2666059 22.0087855,26.1773296 L20.9696868,26.1773296 C20.3463053,26.1773296 19.7795947,26.2728164 19.5940553,25.8963033 C17.8780092,25.8528296 16.1289697,25.8427375 14.3725553,25.8400204 C14.0593118,25.5787901 13.5741145,25.3885928 13.0252592,25.5034875 C12.8564105,25.5388099 12.6642724,25.7231849 12.4639829,25.8683559 C12.2683513,26.0084809 12.0661211,26.138902 11.9302658,26.2615599 C11.7901408,26.3869349 11.6985355,26.5678164 11.5933447,26.6543757 C11.0355618,26.5577243 10.1769566,26.4075072 9.68438421,26.6543757 C9.53416711,26.5988691 9.51553553,26.411777 9.34746316,26.3737375 C9.41849605,26.1916914 9.58812105,26.1090138 9.60054211,25.8683559 C10.1167921,25.6358493 10.5371671,25.3078559 10.9191145,24.941823 C10.9649171,24.6607967 10.8581737,24.3029151 10.9191145,24.0719612 C10.9649171,23.9011717 11.1058184,23.9023362 11.1442461,23.7625993 C11.1438579,23.5852112 10.9466737,23.6042309 10.9191145,23.4540138 C11.0095553,22.862073 10.7960684,22.3462112 10.9191145,21.8819743 C10.9524961,21.7597046 11.1100882,21.6875072 11.1442461,21.5733888 C11.2079039,21.3591257 11.0871868,21.1553428 11.1442461,20.9558296 C11.1795684,20.8323954 11.2967921,20.8176454 11.3406539,20.7027507 C11.4027592,20.2482178 11.1046539,20.1538954 10.9191145,19.9450664 L10.9191145,17.1658559 C10.9614237,17.057948 11.1135816,17.0606651 11.1442461,16.9415007 C11.1143579,16.5459678 10.999075,15.8713493 11.1442461,15.4812507 C11.1947066,15.3453954 11.2863118,15.3120138 11.3406539,15.2013888 L11.3406539,14.1347309 C11.3406539,13.7892704 11.2715618,13.372777 11.3406539,13.0672967 C11.3938316,12.8340138 11.6255618,12.7086388 11.6216803,12.478073 C11.6166342,12.2354743 11.4307066,12.1104875 11.3406539,11.9723033 L11.3406539,9.69925066 C11.3406539,9.43219803 11.3872329,9.12244803 11.3406539,8.94156645 C11.3049434,8.80144145 11.2040224,8.77582303 11.1442461,8.65976382 L11.1442461,7.84618487 C11.1442461,7.57330987 11.0833053,7.22901382 11.1442461,7.03221776 C11.2148908,6.80126382 11.4970816,6.78107961 11.5653974,6.58311908 C11.53745,6.05367171 11.7951868,5.06348092 11.3123184,4.92684934 C11.456325,4.6469875 11.6721408,4.32869803 11.7062987,3.94403355 C11.7482197,3.45301382 11.4726276,2.98334276 11.3123184,2.62507303 C11.1419171,2.55947434 10.9047526,2.58276382 10.7518184,2.56879013 C10.6074237,2.21983618 10.3873382,1.97995461 10.0775882,1.72687566 C9.98908816,1.65390197 9.66264737,1.43769803 9.656825,1.38956645 C9.64673289,1.31853355 9.88195658,1.15240197 9.90951579,0.968803289 C9.91456184,0.9299875 9.89825921,0.888454605 9.937075,0.884573026 L10.2460487,0.884573026 C10.379575,0.9004875 10.3477461,1.08214539 10.4707921,1.10892829 L12.0707789,1.10892829 Z" id="Fill-10" fill="#0F7CD4"></path>
                                    <path d="M36.6331388,10.3443691 C36.4161586,10.5811454 36.3746257,10.9859941 36.1557046,11.1587243 C36.1192178,11.187448 36.006652,11.1975401 36.0155796,11.2992375 C35.9577441,11.5418362 35.9965599,11.7720138 35.9596849,12.0293625 C35.9290204,12.244402 35.8191717,12.4439151 35.7908362,12.6465336 C35.7031125,13.2780664 35.9154349,13.8700072 35.7908362,14.5271586 C36.5562836,14.461948 36.9735533,14.6187638 37.3912112,14.8644678 C37.6497243,15.0166257 37.9031914,15.231277 38.2614612,15.2572836 C38.2936783,14.4425401 38.3255072,13.466323 38.2897967,12.6185862 C38.283198,12.4687572 38.3142507,12.2874875 38.2897967,12.141152 C38.2769875,12.065073 38.204402,11.9424151 38.1776191,11.8325664 C38.054573,11.3310664 38.1190072,10.6576125 37.8123625,10.4569349 C37.5519086,10.2869217 37.2720467,10.3548493 37.0826257,10.2046322 C36.8605993,10.0272441 36.8567178,9.82113224 36.6614743,9.50245461 C36.6781651,9.80871118 36.6117901,10.0330664 36.6331388,10.3443691 M38.3177441,26.9629612 C38.2820336,26.4587441 38.3674283,26.0667046 38.3177441,25.671948 C38.2738822,25.3245467 38.108527,24.9891783 38.0087704,24.6611849 C37.9590862,24.4966059 37.894652,24.3328033 37.8399217,24.1558033 C37.7925664,23.9985993 37.7215336,23.8072375 37.7001849,23.6508099 C37.671073,23.4423691 37.754527,23.157073 37.7001849,22.921073 C37.6093559,22.5267046 36.9588033,22.1905599 36.7740401,21.7697967 C36.7235796,21.6572309 36.638573,21.4266651 36.6614743,21.2648033 C36.6847638,21.1033296 37.0387638,20.718277 37.1389086,20.5626257 C37.466902,20.0518099 37.6885401,19.646573 37.8686454,18.9905862 C37.9505467,18.6920928 38.069323,18.2592967 38.0087704,17.9802112 C37.9637441,17.7717704 37.6357507,17.5881717 37.4191586,17.4468822 C36.9223164,17.1219941 36.4790401,16.9205401 35.9880204,16.6329151 C35.7621125,16.5001651 35.5218428,16.2672704 35.1736651,16.3235533 C35.3603691,16.7268493 35.3588164,17.3180138 35.3421257,17.9239283 C35.4434349,18.0186388 35.5843362,18.0997638 35.7069941,18.2045664 C35.8253822,18.3054875 35.9375599,18.3978691 36.0722507,18.4855928 C36.006652,18.7755467 35.7795796,18.904027 35.7069941,19.1866059 C35.1084546,19.1998033 34.5533888,19.0868493 34.022777,19.1586586 C33.6377243,19.2118362 33.2592704,19.4260993 32.8998362,19.5518625 C32.5058559,19.6904349 32.1340007,19.8119283 31.7768954,19.9450664 C31.5245928,19.8138691 31.5979546,19.3570072 31.3836914,19.1866059 C31.4954809,19.0286257 31.5913559,18.837652 31.7485599,18.6536651 C31.8871322,18.4937441 32.1107112,18.3866125 32.1700993,18.2045664 C32.2267704,18.0298954 32.1817441,17.8525072 32.2259941,17.6991849 C32.3420533,17.296277 32.6273493,17.1724546 32.9840664,16.9415007 C32.9860072,16.7905072 32.7158493,16.7905072 32.7872704,16.6604743 C32.7472901,16.2707638 32.9549546,15.8767836 32.9557309,15.4536914 C32.9565072,15.1695599 32.8264743,14.9389941 32.8718888,14.6956191 C32.9060467,14.5093033 33.0558757,14.388198 33.1800862,14.2748559 C33.226277,13.9957704 33.1187572,13.6871849 33.1800862,13.4601125 C33.2247243,13.2994151 33.3974546,13.2741849 33.4056059,13.1235796 C33.3256454,12.9853954 33.2177375,12.9873362 33.1800862,12.8429414 C33.1296257,12.6445928 33.2363691,12.4334349 33.2363691,12.281277 C33.2363691,11.9055401 33.1272967,11.607823 33.2647046,11.2992375 C33.3458296,11.1164151 33.5111849,10.9766783 33.6016257,10.7934678 C33.7790138,10.4320928 33.8123954,10.059073 33.8547046,9.58668487 C33.9257375,9.47838882 34.0635336,9.37746776 34.1066191,9.27809934 C34.2517901,8.9466125 34.2129743,8.37951382 34.3034151,7.90207961 C34.3853164,7.4716125 34.5436849,7.06948092 34.7245664,6.75119145 C34.8161717,6.58971776 34.9850204,6.45347434 35.0052046,6.33004013 C35.0397507,6.12276382 34.9170928,5.96439539 34.9485336,5.79709934 C34.9784217,5.64183618 35.1123362,5.55294803 35.229948,5.45979013 C35.4030664,4.95829013 35.5237836,4.48085592 35.7908362,4.02865197 C35.8700204,3.89512566 36.0373164,3.79109934 36.0722507,3.66339539 C36.1425072,3.40604671 36.0082046,3.14404013 36.0722507,2.87776382 C36.0955401,2.77917171 36.3098033,2.48417171 36.4087836,2.40032961 C36.5174678,2.30833618 36.6723428,2.30329013 36.7457046,2.20392171 C36.822948,1.74162566 36.7103822,0.652842763 37.4754414,0.996750658 C37.8566125,1.16792829 37.8143033,1.71096118 37.9253164,2.14763882 C37.9885862,2.40071776 38.1481191,2.64486908 38.2614612,2.84942829 C38.3907178,3.08271118 38.6387507,3.29503355 38.6826125,3.4669875 C38.740448,3.69367171 38.6643691,3.96072434 38.6826125,4.19672434 C38.7435533,5.00137566 39.1922638,5.84251382 39.4406849,6.61145461 C39.5780928,7.03687566 39.6506783,7.47782303 39.7492704,7.87452039 C39.8001191,8.07791513 39.8649414,8.28014539 39.9181191,8.49207961 C39.9693559,8.70052039 39.9806125,8.96058618 40.0578559,9.13758618 C40.1141388,9.26606645 40.2659086,9.34408618 40.3109349,9.44655987 C40.3478099,9.73729013 40.2600862,9.99929671 40.3109349,10.2321914 C40.3388822,10.3598954 40.5065664,10.4631454 40.5352901,10.5970599 C40.554698,10.685948 40.4817243,10.8190862 40.5073428,10.9064217 C40.5446059,11.0341257 40.6998691,11.0803164 40.7320862,11.1866717 C40.6994809,11.4913757 40.7740072,11.9024349 40.7320862,12.2533296 C40.7219941,12.3371717 40.6804612,12.4291651 40.6758033,12.5060204 C40.6412572,13.0486651 40.7875928,13.7143559 40.8722112,14.2469086 C40.9273296,14.5966388 40.992152,14.9320072 41.0127243,15.3977967 C41.0627967,16.5393691 41.0577507,17.9448888 41.0127243,18.9626388 C41.0018559,19.1935928 41.0080664,19.5305138 40.9564414,19.720323 C40.9083099,19.8949941 40.7580928,20.1096454 40.6758033,20.3382704 C40.4549414,20.9531125 40.2798822,21.7135138 39.8897836,22.1913362 C39.8369941,22.5969612 39.9619809,22.9447507 39.8897836,23.2859414 C39.8618362,23.4171388 39.738402,23.5339743 39.6933757,23.6508099 C39.5388888,24.0482836 39.5264678,24.5156257 39.2722243,24.8296454 C39.2287507,25.045073 39.3292836,25.2624414 39.2722243,25.475152 C39.2454414,25.5733559 39.1053164,25.6533164 39.0762046,25.7561783 C38.9962441,26.0309941 39.1468493,26.338027 39.0762046,26.5984809 C39.037777,26.7358888 38.8759151,26.8368099 38.7664546,26.9070664 C38.5913954,26.9357901 38.4990138,26.8659217 38.3177441,26.9629612" id="Fill-12" fill="#0F7CD4"></path>
                                    <path d="M35.2298704,1.44553882 C35.2861533,1.65786118 35.1301138,1.81467697 35.0610217,1.97886776 C34.8537454,2.47260461 34.7089625,2.9345125 34.3596204,3.29821645 C34.3964954,3.68482171 34.407752,4.02756513 34.2191072,4.33692697 C34.0914033,4.54692039 33.7855349,4.68782171 33.741673,4.87064408 C33.7024691,5.0363875 33.7878638,5.21998618 33.7700086,5.37602566 C33.7327454,5.70401908 33.5270217,5.75836118 33.3205217,5.99358487 C33.225423,6.59173618 33.1904888,7.28731513 32.9839888,7.8462625 C32.9055809,8.0601375 32.7588572,8.22782171 32.7316862,8.49176908 C32.7196533,8.60666382 32.7588572,8.71495987 32.7596336,8.82869013 C32.7623507,9.18501908 32.7196533,9.56424934 32.7033507,9.92329539 C32.6901533,10.2058743 32.7565283,10.529598 32.6754033,10.7935454 C32.6462914,10.8890322 32.5515809,10.9511375 32.5065546,11.0462362 C32.3831204,11.3140651 32.3462454,11.694848 32.254252,12.0011046 C32.1572125,12.3232757 32.0621138,12.5856704 31.8614362,12.8150717 L31.8614362,13.5448086 C31.720923,13.8933743 31.3199559,14.0451441 31.243877,14.4150586 C31.1716796,14.762848 31.243877,15.2100059 31.243877,15.5938941 C31.243877,15.9770059 31.295502,16.3934993 31.243877,16.7727296 C31.2035086,17.0630717 31.0362125,17.3701046 30.9352914,17.6713151 C30.8273836,17.9923217 30.6631928,18.3230322 30.6259296,18.5695125 C30.5700349,18.9382625 30.6550414,19.293427 30.6259296,19.6086112 C30.5591664,20.3290322 30.1993441,20.8084072 29.8682454,21.3770586 C29.8779493,21.911552 29.5643178,22.2698217 29.5309362,22.6680717 C29.7133704,22.8307099 29.7017257,22.4914599 29.8682454,22.4716638 C30.1768309,22.7107691 30.6216599,22.4732164 31.0474691,22.4996112 C31.2004033,22.2717625 31.1301467,22.0019928 31.2714362,21.7982099 C31.4938507,21.4760388 31.9611928,21.4426572 32.3388704,21.2928283 C32.5224691,21.2190783 32.7351796,21.0436309 32.9839888,20.9279599 C33.542548,20.6671178 34.0681138,20.5071967 34.2753901,19.9168086 C34.4523901,19.9870651 34.4411336,20.1481507 34.6126993,20.198223 C34.8832454,20.2777954 35.3036204,20.112052 35.5667914,20.198223 C35.6882849,20.2378151 35.9596072,20.5953086 35.9596072,20.7870586 C35.9596072,20.9229138 35.7954164,21.0735191 35.7631993,21.2365454 C35.7387454,21.3592033 35.7457322,21.5233941 35.7631993,21.6297493 C35.7888178,21.7869533 35.9231204,21.889427 35.9596072,22.078848 C36.0116204,22.3497822 35.9596072,22.7041704 35.9596072,23.0608875 C35.9596072,23.4098414 36.0240414,23.7906243 35.9596072,24.0157559 C35.9192388,24.1562691 35.6638309,24.278927 35.7344757,24.4652428 L32.6474559,24.4652428 C32.5209164,24.4415651 32.5496401,24.2634007 32.4231007,24.2404993 C32.0718178,24.2381704 31.7713836,24.0766967 31.4965678,24.1279336 C31.2392191,24.175677 30.9919625,24.5758678 30.710548,24.632927 C30.0568901,24.7132757 29.4909559,24.5952757 28.9137651,24.6892099 C28.4941664,24.7575257 28.1226993,25.1154072 27.6786467,25.0824138 C27.4566204,24.8794072 27.4612783,24.6461243 27.4822388,24.1838283 C27.4946599,23.9105651 27.4344954,23.5767493 27.4822388,23.3978086 C27.5288178,23.2231375 27.7337651,23.1392954 27.7624888,23.0049928 C27.8106204,22.7845191 27.7073704,22.5908283 27.6786467,22.4716638 C27.767923,22.2865125 28.0415743,22.2570125 28.1273572,22.0225651 C28.1987783,21.8265454 28.1541401,21.5990849 28.0994099,21.348723 C28.1778178,21.2043283 28.3439493,21.1736638 28.380048,21.011802 C28.4204164,20.8340257 28.3090151,20.6535322 28.3245414,20.478473 C28.3392914,20.2968151 28.4728178,20.1597954 28.5209493,20.0018151 C28.5772322,19.8116178 28.6044033,19.571348 28.6047914,19.3555322 C28.6055678,19.0807164 28.6075086,18.7263283 28.5209493,18.4014401 C28.4821336,18.2597625 28.3474428,18.1386572 28.2962059,18.0086243 C28.0885414,17.4838349 28.1013507,16.8239664 28.1273572,16.2681243 C28.1576336,15.6416375 28.1556928,15.0407691 28.2962059,14.4992888 C28.3660743,14.2291309 28.4999888,13.9306375 28.6047914,13.6569862 C28.9044493,12.8732954 29.2615546,12.006927 29.5309362,11.2150849 C29.5208441,11.0571046 29.3523836,11.0396375 29.3345283,10.8218809 C29.3162849,10.5955849 29.5301599,10.4453678 29.6155546,10.2043217 C29.6916336,9.98850592 29.6392322,9.76143355 29.6718375,9.5867625 C29.7091007,9.38492039 29.8736796,9.17259803 29.9808112,8.96920329 C30.1061862,8.72970987 30.2517454,8.48944013 30.2890086,8.18318355 C30.3154033,7.9716375 30.2560151,7.74417697 30.2890086,7.50895329 C30.3239428,7.26208487 30.4861928,6.99697303 30.5975941,6.75126908 C30.8712454,6.15195329 31.1227717,5.56816382 31.5245151,5.03910461 C31.6157322,4.91799934 31.7251928,4.85084803 31.7484822,4.75807829 C31.8055414,4.54070987 31.7119954,4.32994013 31.7484822,4.16885461 C31.7876862,3.99690066 31.8998638,4.00311118 31.9452783,3.83193355 C31.656877,3.53809803 31.155377,3.84357829 30.7943901,3.71975592 C30.6162257,3.65803882 30.5855612,3.43368355 30.4574691,3.38283487 C30.2940546,3.31840066 30.0906599,3.35838092 29.9524757,3.38283487 C29.8076928,3.40845329 29.5988638,3.44183487 29.503377,3.49462434 C29.1738309,3.67899934 28.9785875,4.56167039 28.8858178,5.03910461 C28.7724757,5.61668355 28.721627,6.44850592 28.3524888,6.63909145 C28.0768967,6.78115724 27.834298,6.58164408 27.7624888,6.94767697 C27.5998507,6.86732829 27.5031993,6.72138092 27.369673,6.61153224 C27.4061599,6.44928224 27.4748638,6.3491375 27.4822388,6.16204539 C27.4911664,5.93807829 27.3529822,5.70790066 27.369673,5.5157625 C27.3863638,5.3240125 27.6305151,5.18660461 27.6786467,5.01154539 C27.7399757,4.78757829 27.6786467,4.40330197 27.6786467,4.05667697 L27.6786467,1.22157171 C27.6996072,1.19517697 27.7298836,1.17887434 27.7624888,1.1645125 L34.7807717,1.1645125 C34.8894559,1.20682171 34.9150743,1.32947961 34.9775678,1.41759145 C35.0524822,1.38809145 35.1926072,1.36480197 35.2298704,1.44553882" id="Fill-14" fill="#0F7CD4"></path>
                                    <path d="M4.82845132,13.2638987 C4.80865526,13.3547276 4.73645789,13.4090697 4.71627368,13.4886421 C4.59400395,13.9524908 4.84126053,14.3821816 4.82845132,14.8083789 C4.81758289,15.1449118 4.62272763,15.4775632 4.63126711,15.8183658 C4.48881316,15.8730961 4.39837237,15.9561618 4.4073,16.0993921 C4.41622763,16.2507737 4.56916184,16.2705697 4.63126711,16.3800303 L4.63126711,20.2262868 C4.48299079,20.3539908 4.37857632,20.5337079 4.35140526,20.787175 C4.30637895,21.1904711 4.32656316,21.9042934 4.35140526,22.4434447 C4.36537895,22.7660039 4.37236579,23.0384908 4.43447105,23.2294645 C4.30599079,23.4561487 4.18333289,23.6890434 4.06960263,23.9312539 C4.70307632,23.9654118 4.77410921,23.4379053 5.27716184,23.3420303 C5.55120132,23.1196158 5.77478026,22.8269447 6.00728684,22.5839579 C6.08453026,22.5028329 6.20990526,22.4131684 6.25997763,22.3308789 C6.51693816,21.9097276 6.32053026,21.2572342 6.45599737,20.64705 C6.72887237,20.1249776 6.83483947,19.4348329 6.90548421,18.7097539 C6.90820132,18.5851553 6.75914868,18.6123263 6.73702368,18.5133461 C7.01416842,18.3619645 6.85230658,18.0650237 6.76535921,17.8119447 C6.686175,17.5813789 6.55614211,17.3411092 6.62445789,17.0255368 C6.64270132,16.9401421 6.81155,16.8295171 6.84881316,16.6606684 C6.94546447,16.2286487 6.656675,16.1176355 6.56856316,15.8746487 C6.3838,15.3673263 6.69044474,15.0106092 6.73702368,14.5273526 C6.72693158,14.4252671 6.61669474,14.4229382 6.59612237,14.3305566 C6.85618816,14.0254645 6.47656974,13.603925 6.40049079,13.4603066 C6.45793816,13.4440039 6.58408947,13.4952408 6.59612237,13.4327474 C6.51383289,13.3469645 6.45793816,13.2347868 6.42805,13.09505 C6.42572105,12.9805434 6.54022763,12.9832605 6.51266842,12.8431355 C6.36982632,12.5423132 6.10549079,12.3754053 5.86638553,12.1976289 C5.49453026,11.9197079 5.12772105,11.5765763 4.82845132,11.2714842 C4.79972763,11.97405 4.960425,12.6498329 4.82845132,13.2638987 M5.02447105,4.50589211 C4.99380658,4.61496447 4.84824737,4.60914211 4.82845132,4.73024737 L4.82845132,8.63239868 C4.97828026,8.56563553 5.17546447,8.62114211 5.30549737,8.65995789 C5.54770789,8.49266184 5.57293816,8.16816184 5.72626053,7.93022105 C5.92460921,7.62357632 6.22737237,7.45511579 6.68035263,7.39728026 C6.70053684,6.77156974 6.60000395,6.02514211 6.87753684,5.65678026 C6.78787237,5.42776711 6.67491842,5.22243158 6.68035263,4.89870789 C6.75410263,4.78497763 6.90393158,4.74771447 6.98971447,4.64640526 C6.74090526,4.55635263 6.65007632,4.65843816 6.42805,4.56178684 C6.24561579,4.48221447 6.17807632,4.21205658 6.03523421,4.16858289 C5.73712895,4.07853026 5.42078026,4.34519474 5.08036579,4.25281316 C5.08385921,4.21283289 5.2038,4.10647763 5.08036579,4.11307632 C5.0563,4.23845132 5.01243816,4.34441842 5.02447105,4.50589211 M7.57893816,9.61482632 C7.71634605,9.80502368 7.85724737,9.872175 8.08470789,9.95135921 C8.25899079,10.0126882 8.63278684,10.0216158 8.73060263,10.1481553 C9.02521447,10.5293263 8.39135263,10.9357276 8.58931316,11.2152013 C8.68674079,11.3522211 8.68868158,11.1930763 8.81444474,11.2431487 C9.06247763,11.4442145 9.17387895,11.7815237 9.43122763,11.9724974 C9.29886579,12.6649711 9.07334605,13.7494842 9.40366842,14.3872276 C9.52710263,14.6255566 9.74563553,14.6713592 9.85276711,14.8922211 C9.54728684,16.0974513 10.1908526,17.8100039 9.768925,18.8223197 C9.709925,18.9628329 9.53835921,19.1017934 9.51584605,19.2434711 C9.48789868,19.4189184 9.57096447,19.6952868 9.60046447,19.8885895 C9.67770789,20.3963 9.69866842,20.7491355 9.54418158,21.2366618 C9.47819474,21.4423855 9.40677368,21.6826553 9.31905,21.8542211 C9.12497105,22.2342276 8.82686579,22.5393197 8.67354342,22.9488263 C8.50818816,23.3921026 8.47674737,23.8466355 8.39368158,24.4090763 C7.80445789,24.65905 7.24201711,24.9874316 6.73702368,25.3631684 C6.45133947,25.5754908 6.18855658,25.7544316 6.03523421,26.0929053 C5.46153684,26.1926618 4.81020789,26.2155632 4.43447105,26.5140566 C4.22137237,26.5280303 4.17751053,26.2171158 3.95820132,26.2050829 C3.74976053,26.1938263 3.64495789,26.4996947 3.45204342,26.5699513 C3.29328684,26.6285632 3.03826711,26.6262468 2.86320789,26.6262468 C2.46573421,26.6262468 2.04031316,26.5548132 1.65564868,26.4861092 C1.43672763,26.6273987 1.14871447,26.4760171 0.842069737,26.4861092 C0.823438158,26.4864974 0.716306579,26.4733 0.673221053,26.4861092 C0.635569737,26.4973658 0.586273684,26.569175 0.588990789,26.5699513 C0.476425,26.5497671 0.220240789,26.2186684 0.167839474,26.1775237 C0.429069737,26.0544776 0.724457895,25.9663658 0.925911842,25.7839316 C1.05361579,25.16055 1.30863553,24.5876289 1.37539868,23.9595895 C1.40218158,23.7034053 1.36414211,23.4371289 1.37539868,23.1727934 C1.3983,22.6173395 1.45768816,22.0413132 1.45885263,21.4889645 C1.46234605,20.4960566 1.26438553,19.4996553 1.20693816,18.4853987 C1.13163553,17.158675 1.31329342,15.8350566 1.26283289,14.4710697 C1.30669474,14.3464711 1.5163,14.3880039 1.57180658,14.2746618 C1.53376711,13.9229908 1.60635263,13.5860697 1.54424737,13.2363395 C1.51979342,13.1039776 1.40140526,13.0038329 1.37539868,12.8710829 C1.31484605,12.5679316 1.38704342,12.1211618 1.40295789,11.7485303 C1.41072105,11.5843395 1.37966842,11.4088921 1.40295789,11.2714842 C1.43012895,11.1142803 1.58966184,10.9760961 1.62808947,10.7936618 C1.71697763,10.3682408 1.59548421,10.02705 1.37539868,9.72700395 L1.37539868,5.79729342 C1.37539868,5.37614211 1.28340526,4.84087237 1.37539868,4.50589211 C1.41693158,4.35295789 1.51979342,4.35916842 1.59975395,4.22486579 C1.53687237,3.99313553 1.63662895,3.80526711 1.54424737,3.69153684 C1.40761579,3.52501711 1.31445789,3.70473421 1.066425,3.63525395 C0.980253947,3.58440526 1.02683289,3.48503684 0.982582895,3.41089868 C0.827319737,3.15316184 0.463227632,2.97926711 0.252457895,2.73705658 C0.155418421,2.62604342 0.110392105,2.50066842 0.000155263158,2.40052368 C0.0626486842,2.22624079 -0.0126539474,2.04070132 0.0277144737,1.89514211 C0.0700236842,1.74065526 0.224122368,1.6638 0.280405263,1.55822105 C0.580451316,1.52522763 0.953859211,1.60169474 1.29078026,1.55822105 C1.49145789,1.53221447 1.67893816,1.45108947 1.88000395,1.41731974 C3.06660263,1.22091184 4.53500395,1.35210921 5.86638553,1.24924737 C6.34808947,1.21237237 6.80922105,1.20965526 7.27035263,1.30591842 C7.38796447,1.36181316 7.37049737,1.49339868 7.43881316,1.58616842 C7.55137895,1.73910263 7.74468158,1.82643816 7.88791184,1.95103684 C8.62153026,1.90212895 8.94098421,2.41993158 9.20726053,2.90551711 C9.39124737,3.24088553 9.58998421,3.69541842 9.62802368,4.14102368 C9.65364211,4.42981316 9.64549079,4.7613 9.68430658,5.09511579 C9.73282632,5.51587895 9.82559605,5.91374079 9.71264211,6.27433947 C9.665675,6.42378026 9.55427368,6.55730658 9.45995132,6.72305 C8.91614211,7.68412895 8.31216842,8.96000395 7.57893816,9.61482632" id="Fill-16" fill="#0F7CD4"></path>
                                    <path d="M20.0989322,1.417475 C22.1701428,1.33052763 24.2813336,1.44581053 26.386702,1.417475 C26.4453138,1.76836974 26.3113993,2.21164605 26.386702,2.59708684 C26.4142612,2.73138947 26.5594322,2.87151447 26.583498,2.99029079 C26.6409454,3.261225 26.583498,3.65171184 26.583498,3.97194211 L26.583498,6.83615921 C26.5295441,6.95338289 26.4177546,7.0151 26.3595309,7.17230395 C26.2500704,7.46691579 26.2985901,7.87215263 26.386702,8.15511974 C25.7004388,8.78742895 25.5575967,9.96471184 25.0681296,10.7934289 L25.0681296,11.7482974 C24.4602743,12.0266066 23.7080243,12.4058368 24.0290309,13.4887974 C23.9843928,13.6106789 23.8182612,13.6444487 23.7200572,13.7414882 C23.3839125,14.0745276 23.0698928,14.7860211 22.8501954,15.2855803 C22.7310309,15.5545737 22.6219586,15.8604421 22.5128862,16.1554421 C22.401873,16.4601461 22.241952,16.7698961 22.2046888,17.0536395 C22.1825638,17.2209355 22.234577,17.4154026 22.2046888,17.5869684 C22.1678138,17.7957974 21.9822743,18.1315539 21.8961033,18.3729882 C21.6546691,19.0530408 21.4334191,19.7218368 21.1376428,20.3661789 C21.0871822,20.4768039 20.9909191,20.6052842 21.0254651,20.7310474 C21.2696164,20.9391 21.5424914,20.7314355 21.755202,20.6188697 C21.9589849,20.5105737 22.2085704,20.3246461 22.4014849,20.2819487 C22.5866362,20.2411921 22.7415112,20.2640934 22.9060901,20.2260539 C23.0512612,20.1922842 23.200702,20.1752053 23.3272414,20.0855408 C23.5112283,19.9555079 23.6005046,19.6989355 23.7483928,19.4675934 C24.0682349,18.969975 24.4490178,18.4086987 25.152748,18.2891461 C25.2311559,17.9002118 25.3639059,17.5656197 25.6010704,17.3342776 C25.6969454,17.3882316 25.6969454,17.5376724 25.7978664,17.5869684 C26.2671493,17.4674158 26.2349322,16.8451987 26.4992678,16.5203105 L27.116827,16.5203105 C27.0566625,16.9507776 27.1063467,17.5011855 27.2290046,17.8400474 C27.1657349,17.9537776 27.0294914,17.9316526 26.9483664,18.0360671 C26.9169257,18.0772118 26.8843204,18.2200539 26.836577,18.3170934 C26.767873,18.4545013 26.6871362,18.5364026 26.6685046,18.6819618 C26.5609849,19.5087382 26.733327,20.8482711 26.7240112,21.7138632 C26.3075178,21.7456921 26.0482283,21.9362776 25.8254257,22.1629618 L23.5240375,22.1629618 C23.3858533,22.1420013 23.4130243,21.9552974 23.2992941,21.9098829 C23.1207414,21.9743171 23.0392283,21.9009553 22.9060901,21.9378303 C22.6312743,22.0142974 22.5652875,22.3543237 22.3448138,22.3873171 C22.047873,22.4315671 21.7990638,22.1773237 21.5312349,22.0507842 L19.9871428,22.0507842 C19.8757414,21.9308434 19.7076691,21.8237118 19.7057144,21.6579684 C19.7037875,21.4615605 19.9060178,21.3715079 20.0150901,21.2368171 C20.0888401,20.784225 19.9145572,20.3479355 20.0150901,19.9733632 C20.0469191,19.8522579 20.1920901,19.7746263 20.211498,19.6647776 C20.2638993,19.3624026 19.9351296,18.9451329 19.7620112,18.7941395 C19.8520638,18.6512974 19.9591954,18.5336855 19.9591954,18.3450408 C19.9591954,18.1769684 19.8179059,18.0368434 19.7899586,17.8955539 C19.7018467,17.4460671 19.8299388,16.9356395 19.9029125,16.5203105 C19.9491033,16.2524816 19.9642414,15.9493303 20.0150901,15.7626263 C20.0453664,15.6473434 20.1470638,15.5394355 20.1835507,15.4253171 C20.2833072,15.1120737 20.2526428,14.7697184 20.351623,14.4991724 C20.5321164,14.0058237 20.9315309,13.6848171 21.1663664,13.3203368 C21.2727217,12.5381987 21.6515638,12.0285474 22.0637875,11.5511132 C22.1744125,10.9118171 22.3545178,10.1576263 22.5695572,9.53036316 C22.7345243,9.04865921 22.9157941,8.79829737 23.3272414,8.57588289 C23.4840572,8.07748816 23.8636757,7.80267237 24.1691559,7.45333026 C24.0624125,7.00733684 23.9820638,6.51321184 24.1691559,6.16231711 C24.2463993,6.01831053 24.3997217,5.95271184 24.506077,5.82500789 C24.8942349,5.35921842 25.2016559,4.70944211 25.6294059,4.36553421 L25.6294059,2.99029079 C25.2113599,3.00620526 24.8057349,2.98019868 24.3938993,2.96195526 C24.0860901,2.94759342 23.6917217,2.90101447 23.4110836,2.96195526 C23.2950243,2.98679737 22.9879914,3.16418553 22.8501954,3.24220526 C22.4193401,3.48868553 22.0696099,3.88305395 22.1200704,4.58988947 C21.7078467,4.61706053 21.4520507,4.80182368 21.2781559,5.06693553 C21.2067349,5.68177763 21.3751954,6.32068553 21.2781559,6.86371842 C21.2494322,7.02674474 21.1325967,7.18006711 21.0538007,7.31281711 C20.9649125,7.46186974 20.8865046,7.61829737 20.7727743,7.70563289 C20.6124651,7.59578421 20.454873,7.36211316 20.5484191,7.08807368 C20.5142612,6.95415921 20.3749125,6.92465921 20.3236757,6.80743553 C20.2751559,6.45382368 20.2153796,5.96163947 20.1268796,5.74116579 C20.2227546,5.35378421 20.4257612,4.78163947 20.2677809,4.36553421 C20.1870441,4.15282368 20.0329454,4.09925789 19.9029125,3.94399474 C19.9832612,3.32721184 19.7938401,2.62115263 19.9029125,2.06375789 C19.9467743,1.83396842 20.174623,1.69694868 20.1268796,1.47375789 C20.1323138,1.44154079 20.1210572,1.42407368 20.0989322,1.417475" id="Fill-18" fill="#0F7CD4"></path>
                                    <path d="M14.6533487,1.44553882 C15.8484868,1.5848875 17.427125,1.62253882 18.6110066,1.44553882 C18.821,1.62952566 19.0418618,1.80109145 18.9762632,2.26028224 C18.5512303,2.39652566 17.8009211,2.78235461 17.8533224,3.35527566 C17.8723421,3.56177566 18.0885461,3.68792697 18.0780658,3.94411118 C18.0668092,4.21116382 17.8273158,4.26705855 17.7690921,4.47782829 C17.7034934,4.71576908 17.7795724,5.21882171 17.7974276,5.62832829 C17.8533224,6.90459145 17.9006776,8.34426908 17.8249868,9.67138092 C17.8121776,9.90738092 17.7566711,10.1402757 17.7690921,10.3164993 C17.7753026,10.3941309 17.8346908,10.4865125 17.8533224,10.5691901 C17.9352237,10.9282362 18.0035395,11.2721441 18.0780658,11.6362362 C17.9107697,11.8213875 17.7240658,11.9025125 17.68525,12.1975125 C17.6441053,12.5026046 17.7271711,13.3262757 17.7690921,13.7132691 C17.7857829,13.8634862 17.7787961,14.0133151 17.7974276,14.1344204 C17.8129539,14.2368941 17.8700132,14.3219007 17.8812697,14.4150586 C17.9080526,14.6254401 17.9068882,14.9918612 17.8533224,15.1447954 C17.7931579,15.3171375 17.4989342,15.4712362 17.4601184,15.650177 C17.4232434,15.8213546 17.5160132,16.0973349 17.5726842,16.3515783 C17.6246974,16.5871901 17.6231447,16.8371638 17.6565263,17.0537559 C17.6802039,17.2008678 17.7465789,17.3374993 17.7974276,17.4745191 C17.8451711,17.604552 17.9460921,17.7493349 17.9658882,17.867723 C17.9969408,18.0637428 17.928625,18.3703875 17.9096053,18.6257954 C17.89175,18.870723 17.9274605,19.1626178 17.8533224,19.3555322 C17.8020855,19.4890586 17.5680263,19.6214204 17.5447368,19.7770717 C17.5136842,19.9827954 17.6840855,20.5370849 17.7690921,20.6752691 C17.9006776,20.8887559 18.2084868,20.9788086 18.4429342,21.1239796 C18.71775,21.2951572 18.9246382,21.4589599 19.0884408,21.5730783 C19.1303618,21.8218875 19.1482171,22.0932099 19.2006184,22.3311507 C18.9355066,22.228677 18.4289605,22.137848 18.1902434,22.3311507 C17.8020855,22.1774401 17.2757434,22.204223 16.7032105,22.2469204 C16.3701711,22.2717625 16.0313092,22.2702099 15.8042368,22.359098 C15.5853158,22.4452691 15.4370395,22.7402691 15.2709079,22.752302 C15.0349079,22.7701572 14.9002171,22.4708875 14.7934737,22.3874336 C15.1032237,22.0136375 15.3407763,21.5688086 15.8042368,21.348723 C15.9257303,20.7967625 15.9210724,20.0033678 15.9443618,19.2437428 C15.9525132,18.9957099 15.9257303,18.7135191 15.9726974,18.5415651 C16.0119013,18.3967822 16.1500855,18.3451572 16.1691053,18.2046441 C16.1966645,17.9927099 16.0161711,17.855302 15.9726974,17.6154204 C15.9362105,17.4108612 15.9637697,17.0968414 16.0289803,16.8852954 C16.0681842,16.7552625 16.1962763,16.6415322 16.2253882,16.4928678 C16.2878816,16.1734138 16.2253882,15.6451309 16.2253882,15.1447954 C16.2253882,13.0289467 16.1691053,10.7923809 16.1691053,8.77240724 C16.1691053,8.41452566 16.0992368,7.98250592 16.1691053,7.73369671 C16.2063684,7.60172303 16.2315987,7.61375592 16.3655132,7.50895329 C16.3596908,7.39328224 16.1904539,7.44024934 16.1691053,7.34088092 C16.0934145,6.16631513 16.0060789,4.65793355 15.9443618,3.35527566 C15.9350461,3.15692697 15.9346579,2.94499276 15.8880789,2.82155855 C15.7464013,2.43961118 15.1606711,2.62282171 15.0182171,2.23194671 C14.9095329,2.23699276 14.8113289,2.23272303 14.7375789,2.20399934 C14.6273421,2.07047303 14.5004145,1.95402566 14.3723224,1.83874276 C14.447625,1.68930197 14.5493224,1.56664408 14.6533487,1.44553882" id="Fill-20" fill="#0F7CD4"></path>
                                </g>
                            </g>
                        </g>
                    </g>
                </g>
            </g>
        </g>
    </g>
</svg>