<?xml version="1.0" encoding="UTF-8"?>
<svg width="24px" height="24px" viewBox="0 0 24 24" version="1.1" xmlns="http://www.w3.org/2000/svg" xmlns:xlink="http://www.w3.org/1999/xlink">
    <!-- Generator: Sketch 55.2 (78181) - https://sketchapp.com -->
    <title>Combined Shape</title>
    <desc>Created with Sketch.</desc>
    <g id="Page-1" stroke="none" stroke-width="1" fill="none" fill-rule="evenodd">
        <g id="Desktop-HD" transform="translate(-516.000000, -591.000000)" fill="#D0CFCF">
            <path d="M528.000024,591 C531.259004,591 531.667657,591.013814 532.947585,591.072213 C534.224845,591.13047 535.097168,591.333343 535.860456,591.630008 C536.649562,591.936629 537.318773,592.346949 537.985936,593.014064 C538.653051,593.681227 539.063371,594.350438 539.370039,595.139544 C539.666657,595.902832 539.86953,596.775155 539.927787,598.052415 C539.986186,599.332343 540,599.740996 540,603.000024 C540,606.259004 539.986186,606.667657 539.927787,607.947585 C539.86953,609.224845 539.666657,610.097168 539.370039,610.860456 C539.063371,611.649562 538.653051,612.318773 537.985936,612.985936 C537.318773,613.653051 536.649562,614.063371 535.860456,614.370039 C535.097168,614.666657 534.224845,614.86953 532.947585,614.927787 C531.667657,614.986186 531.259004,615 528.000024,615 C524.740996,615 524.332343,614.986186 523.052415,614.927787 C521.775155,614.86953 520.902832,614.666657 520.139544,614.370039 C519.350438,614.063371 518.681227,613.653051 518.014064,612.985936 C517.346949,612.318773 516.936629,611.649562 516.630008,610.860456 C516.333343,610.097168 516.13047,609.224845 516.072213,607.947585 C516.013814,606.667657 516,606.259004 516,603.000024 C516,599.740996 516.013814,599.332343 516.072213,598.052415 C516.13047,596.775155 516.333343,595.902832 516.630008,595.139544 C516.936629,594.350438 517.346949,593.681227 518.014064,593.014064 C518.681227,592.346949 519.350438,591.936629 520.139544,591.630008 C520.902832,591.333343 521.775155,591.13047 523.052415,591.072213 C524.332343,591.013814 524.740996,591 528.000024,591 Z M528.000024,593.162158 C524.79587,593.162158 524.416322,593.1744 523.15097,593.232133 C521.980982,593.285483 521.345591,593.480973 520.922743,593.645311 C520.362614,593.862998 519.962869,594.123033 519.542975,594.542975 C519.123033,594.962869 518.862998,595.362614 518.645311,595.922743 C518.480973,596.345591 518.285483,596.980982 518.232133,598.15097 C518.1744,599.416322 518.162158,599.79587 518.162158,603.000024 C518.162158,606.20413 518.1744,606.583678 518.232133,607.84903 C518.285483,609.019018 518.480973,609.654409 518.645311,610.077257 C518.862998,610.637386 519.12308,611.037131 519.542975,611.457025 C519.962869,611.876967 520.362614,612.137002 520.922743,612.354689 C521.345591,612.519027 521.980982,612.714517 523.15097,612.767867 C524.416179,612.8256 524.795632,612.837842 528.000024,612.837842 C531.204368,612.837842 531.583869,612.8256 532.84903,612.767867 C534.019018,612.714517 534.654409,612.519027 535.077257,612.354689 C535.637386,612.137002 536.037131,611.876967 536.457025,611.457025 C536.876967,611.037131 537.137002,610.637386 537.354689,610.077257 C537.519027,609.654409 537.714517,609.019018 537.767867,607.84903 C537.8256,606.583678 537.837842,606.20413 537.837842,603.000024 C537.837842,599.79587 537.8256,599.416322 537.767867,598.15097 C537.714517,596.980982 537.519027,596.345591 537.354689,595.922743 C537.137002,595.362614 536.876967,594.962869 536.457025,594.542975 C536.037131,594.123033 535.637386,593.862998 535.077257,593.645311 C534.654409,593.480973 534.019018,593.285483 532.84903,593.232133 C531.583678,593.1744 531.20413,593.162158 528.000024,593.162158 Z M528.000023,606.894739 C530.151015,606.894739 531.894739,605.151015 531.894739,603.000023 C531.894739,600.848985 530.151015,599.105261 528.000023,599.105261 C525.848985,599.105261 524.105261,600.848985 524.105261,603.000023 C524.105261,605.151015 525.848985,606.894739 528.000023,606.894739 Z M528.000023,597 C531.31373,597 534,599.68627 534,603.000023 C534,606.31373 531.31373,609 528.000023,609 C524.68627,609 522,606.31373 522,603.000023 C522,599.68627 524.68627,597 528.000023,597 Z M536,596.500025 C536,597.32846 535.32841,598 534.499975,598 C533.67159,598 533,597.32846 533,596.500025 C533,595.67159 533.67159,595 534.499975,595 C535.32841,595 536,595.67159 536,596.500025 Z" id="Combined-Shape"></path>
        </g>
    </g>
</svg>