<?xml version="1.0" encoding="UTF-8"?>
<svg width="24px" height="24px" viewBox="0 0 24 24" version="1.1" xmlns="http://www.w3.org/2000/svg" xmlns:xlink="http://www.w3.org/1999/xlink">
    <!-- Generator: Sketch 55.2 (78181) - https://sketchapp.com -->
    <title>Group 8</title>
    <desc>Created with Sketch.</desc>
    <defs>
        <polygon id="path-1" points="2.38095238e-05 0.00757619048 23.9924286 0.00757619048 23.9924286 24 2.38095238e-05 24"></polygon>
    </defs>
    <g id="Symbols" stroke="none" stroke-width="1" fill="none" fill-rule="evenodd">
        <g id="Footer" transform="translate(-902.000000, -209.000000)">
            <g id="Group" transform="translate(755.000000, 209.000000)">
                <g id="Group-8" transform="translate(147.000000, 0.000000)">
                    <g id="Group-3">
                        <mask id="mask-2" fill="white">
                            <use xlink:href="#path-1"></use>
                        </mask>
                        <g id="Clip-2"></g>
                        <path d="M11.9962143,0.00757619048 C8.7382619,0.00757619048 8.32969048,0.0213857143 7.05021429,0.0797666667 C5.77330952,0.138004762 4.90130952,0.340814286 4.13821429,0.637385714 C3.34940476,0.943909524 2.68035714,1.3541 2.01345238,2.02100476 C1.3465,2.68795714 0.936357143,3.35695714 0.629785714,4.14576667 C0.333214286,4.9088619 0.130452381,5.7808619 0.0721666667,7.05776667 C0.0137857143,8.33729048 2.38095238e-05,8.74576667 2.38095238e-05,12.0037667 C2.38095238e-05,15.2617667 0.0137857143,15.6702905 0.0721666667,16.9498143 C0.130452381,18.2266714 0.333214286,19.098719 0.629785714,19.8617667 C0.936357143,20.6505762 1.3465,21.3196238 2.01345238,21.9865286 C2.68035714,22.653481 3.34940476,23.0636238 4.13821429,23.3702429 C4.90130952,23.6667667 5.77330952,23.8695762 7.05021429,23.9278619 C8.32969048,23.9861952 8.7382619,24.0000048 11.9962143,24.0000048 C15.2542143,24.0000048 15.6626905,23.9861952 16.9422143,23.9278619 C18.219119,23.8695762 19.091119,23.6667667 19.8542143,23.3702429 C20.6430714,23.0636238 21.3120714,22.653481 21.9789762,21.9865286 C22.6459286,21.3196238 23.0560714,20.6506238 23.3626429,19.8617667 C23.6592143,19.098719 23.8620238,18.2266714 23.9202619,16.9498143 C23.9786429,15.6702905 23.9924524,15.2617667 23.9924524,12.0037667 C23.9924524,8.74581429 23.9786429,8.33729048 23.9202619,7.05776667 C23.8620238,5.7808619 23.6592143,4.9088619 23.3626429,4.14576667 C23.0560714,3.35695714 22.6459286,2.68795714 21.9789762,2.02100476 C21.3120714,1.3541 20.6430714,0.943909524 19.8542143,0.637385714 C19.091119,0.340814286 18.219119,0.138004762 16.9422143,0.0797666667 C15.6626905,0.0213857143 15.2542143,0.00757619048 11.9962143,0.00757619048 M11.9962143,2.16905238 C15.1993571,2.16905238 15.5787381,2.18124286 16.8436905,2.23895714 C18.0133095,2.2923381 18.6485,2.48776667 19.0712143,2.65205238 C19.6311667,2.86967143 20.0308333,3.12962381 20.4505952,3.54938571 C20.8703571,3.96919524 21.1303095,4.36881429 21.3479762,4.92876667 C21.5122143,5.35148095 21.7076429,5.98667143 21.7610238,7.15629048 C21.8186905,8.42124286 21.8309286,8.80067143 21.8309286,12.0037667 C21.8309286,15.2069095 21.8186905,15.5863381 21.7610238,16.8512429 C21.7076429,18.0209095 21.5122143,18.6561 21.3479762,19.0788143 C21.1303095,19.638719 20.8703571,20.0383857 20.4505952,20.4581476 C20.0308333,20.8779571 19.6311667,21.1379095 19.0712143,21.3555286 C18.6485,21.5197667 18.0133095,21.7152429 16.8436905,21.7685762 C15.5789286,21.8262905 15.1995952,21.8385286 11.9962143,21.8385286 C8.79283333,21.8385286 8.4135,21.8262905 7.1487381,21.7685762 C5.97911905,21.7152429 5.34388095,21.5197667 4.92116667,21.3555286 C4.3612619,21.1379095 3.96159524,20.8779571 3.54183333,20.4581476 C3.12207143,20.0383857 2.86207143,19.638719 2.64445238,19.0788143 C2.48021429,18.6561 2.28478571,18.0209095 2.23140476,16.8512905 C2.17369048,15.5863381 2.1615,15.2069095 2.1615,12.0037667 C2.1615,8.80067143 2.17369048,8.42124286 2.23140476,7.15629048 C2.28478571,5.98667143 2.48021429,5.35148095 2.64445238,4.92876667 C2.86207143,4.36881429 3.12207143,3.96919524 3.54183333,3.54943333 C3.96159524,3.12962381 4.3612619,2.86967143 4.92116667,2.65205238 C5.34388095,2.48776667 5.97911905,2.2923381 7.14869048,2.23895714 C8.41369048,2.18124286 8.79307143,2.16905238 11.9962143,2.16905238" id="Fill-1" fill="#F00175" mask="url(#mask-2)"></path>
                    </g>
                    <path d="M12.0000232,15.8947393 C9.84903123,15.8947393 8.10526072,14.1509688 8.10526072,11.9999768 C8.10526072,9.84898485 9.84903123,8.10526072 12.0000232,8.10526072 C14.1510152,8.10526072 15.8947857,9.84898485 15.8947857,11.9999768 C15.8947857,14.1509688 14.1510152,15.8947393 12.0000232,15.8947393 M12.0000232,6 C8.68631657,6 6,8.68627019 6,11.9999768 C6,15.3137298 8.68631657,18 12.0000232,18 C15.3137298,18 18,15.3137298 18,11.9999768 C18,8.68627019 15.3137298,6 12.0000232,6" id="Fill-4" fill="#F00175"></path>
                    <path d="M20,5.5 C20,6.32844856 19.3284597,7 18.5000248,7 C17.67159,7 17,6.32844856 17,5.5 C17,4.67155144 17.67159,4 18.5000248,4 C19.3284597,4 20,4.67155144 20,5.5" id="Fill-6" fill="#F00175"></path>
                </g>
            </g>
        </g>
    </g>
</svg>