<?xml version="1.0" encoding="UTF-8"?>
<svg width="24px" height="24px" viewBox="0 0 24 24" version="1.1" xmlns="http://www.w3.org/2000/svg" xmlns:xlink="http://www.w3.org/1999/xlink">
    <!-- Generator: Sketch 55.2 (78181) - https://sketchapp.com -->
    <title>linkedIn</title>
    <desc>Created with Sketch.</desc>
    <g id="Page-1" stroke="none" stroke-width="1" fill="none" fill-rule="evenodd">
        <g id="Desktop-HD" transform="translate(-369.000000, -591.000000)" fill="#D0CFCF">
            <path d="M393,615 L387.961578,615 L387.961578,606.265456 C387.961578,603.688388 386.865125,602.89362 385.450746,602.89362 C383.955837,602.89362 382.489788,604.017875 382.489788,606.329865 L382.489788,615 L377.451134,615 L377.451134,599.008138 L382.296844,599.008138 L382.296844,601.223863 L382.361081,601.223863 C382.848678,600.239355 384.550496,598.558669 387.150236,598.558669 C389.961772,598.558669 393,600.224706 393,605.109577 L393,615 Z M371.905099,596.78009 C370.300568,596.78009 369,595.560267 369,593.890743 C369,592.221218 370.300568,591 371.905099,591 C373.509397,591 374.809965,592.221218 374.809965,593.890743 C374.809965,595.560267 373.509397,596.78009 371.905099,596.78009 Z M369.385888,614.987676 L369.385888,598.996047 L374.424543,598.996047 L374.424543,614.987676 L369.385888,614.987676 Z" id="linkedIn"></path>
        </g>
    </g>
</svg>