<?xml version="1.0" encoding="UTF-8"?>
<svg width="24px" height="25px" viewBox="0 0 24 25" version="1.1" xmlns="http://www.w3.org/2000/svg" xmlns:xlink="http://www.w3.org/1999/xlink">
    <!-- Generator: Sketch 55.2 (78181) - https://sketchapp.com -->
    <title>linkedIn</title>
    <desc>Created with Sketch.</desc>
    <g id="Symbols" stroke="none" stroke-width="1" fill="none" fill-rule="evenodd">
        <g id="Footer" transform="translate(-755.000000, -209.000000)" fill="#0178AB">
            <g id="Group" transform="translate(755.000000, 209.000000)">
                <path d="M24,24.0225761 L18.961578,24.0225761 L18.961578,15.2798154 C18.961578,12.7003239 17.8651254,11.9048081 16.4507457,11.9048081 C14.955837,11.9048081 13.4897884,13.0301208 13.4897884,15.3442852 L13.4897884,24.0225761 L8.45113365,24.0225761 L8.45113365,8.01567137 L13.2968444,8.01567137 L13.2968444,10.2334801 L13.3610815,10.2334801 C13.8486782,9.24804593 15.5504955,7.56577901 18.1502357,7.56577901 C20.961772,7.56577901 24,9.23338311 24,14.1228496 L24,24.0225761 Z M2.90509901,5.78552726 C1.30056828,5.78552726 1.77635684e-15,4.56455711 1.77635684e-15,2.89346186 C1.77635684e-15,1.22236661 1.30056828,4.01456646e-13 2.90509901,4.01456646e-13 C4.509397,4.01456646e-13 5.80996528,1.22236661 5.80996528,2.89346186 C5.80996528,4.56455711 4.509397,5.78552726 2.90509901,5.78552726 Z M0.385888012,24.0102407 L0.385888012,8.00356873 L5.42454276,8.00356873 L5.42454276,24.0102407 L0.385888012,24.0102407 Z" id="linkedIn"></path>
            </g>
        </g>
    </g>
</svg>