<?xml version="1.0" encoding="UTF-8"?>
<svg width="31px" height="35px" viewBox="0 0 31 35" version="1.1" xmlns="http://www.w3.org/2000/svg" xmlns:xlink="http://www.w3.org/1999/xlink">
    <!-- Generator: Sketch 57.1 (83088) - https://sketch.com -->
    <title>Group 7</title>
    <desc>Created with Sketch.</desc>
    <g id="Page-3" stroke="none" stroke-width="1" fill="none" fill-rule="evenodd">
        <g id="Artboard" transform="translate(-150.000000, -60.000000)">
            <g id="Group-7" transform="translate(150.000000, 60.000000)">
                <path d="M20.3744174,25.3498609 L14.0220696,25.4129043 L20.6436348,35.0000348 L29.9756348,35.0000348 L23.1124174,25.0627304 C22.2284174,25.2491652 21.3126783,25.3482957 20.3744174,25.3498609" id="Fill-1" fill="#E44D30"></path>
                <g id="Group-6" fill="#727272">
                    <path d="M11.0327312,19.1666298 C8.41389742,19.1713985 6.28457937,21.3310514 6.28457937,23.9848432 L6.28457937,31.7609614 L3.1977255,31.7609614 L3.1977255,23.9848432 C3.1977255,19.631347 6.69424126,16.089599 10.9921381,16.089599 L19.9985708,15.9996247 C22.6177599,15.995126 24.7469891,13.835473 24.7469891,11.1815013 C24.7469891,8.52474036 22.613141,6.36328792 19.99031,6.36328792 L3.1977255,6.36328792 L3.1977255,3.28625707 L19.99031,3.28625707 C24.2881181,3.28625707 27.7847226,6.82800514 27.7847226,11.1815013 C27.7847226,15.5349075 24.2881181,19.0766555 19.99031,19.0766555 L11.0327312,19.1666298 Z M30.9824304,11.1815013 C30.9824304,5.04201542 26.0513874,0.0471825193 19.99031,0.0471825193 L1.7765043e-05,0.0471825193 L1.7765043e-05,9.60236247 L19.99031,9.60236247 C20.8498716,9.60236247 21.5492814,10.3107301 21.5492814,11.1815013 C21.5492814,12.0521825 20.8498716,12.7605501 19.99031,12.7605501 L10.9833444,12.8505244 C4.92635301,12.855383 1.7765043e-05,17.8483265 1.7765043e-05,23.9848432 L1.7765043e-05,35.000036 L9.48228711,35.000036 L9.48228711,23.9848432 C9.48228711,23.114072 10.181608,22.4057044 11.0412585,22.4057044 L19.9983931,22.3157301 C26.0559175,22.3114113 30.9824304,17.3182879 30.9824304,11.1815013 L30.9824304,11.1815013 Z" id="Fill-4"></path>
                </g>
            </g>
        </g>
    </g>
</svg>