<?xml version="1.0" encoding="UTF-8"?>
<svg width="36px" height="34px" viewBox="0 0 36 34" version="1.1" xmlns="http://www.w3.org/2000/svg" xmlns:xlink="http://www.w3.org/1999/xlink">
    <!-- Generator: Sketch 53.2 (72643) - https://sketchapp.com -->
    <title>Shape</title>
    <desc>Created with Sketch.</desc>
    <g id="Page-1" stroke="none" stroke-width="1" fill="none" fill-rule="evenodd">
        <g id="Desktop-HD" transform="translate(-250.000000, -72.000000)" fill="#E34B39" fill-rule="nonzero">
            <path d="M261.284165,82.4436417 L250,72 L269.21742,72 C277.884532,72 281.764058,78.0201468 281.764058,83.986373 C281.764058,89.6750073 278.6284,92.6266667 276.499917,93.9756828 L286,106 L272.403137,106 L264.342733,96.354185 L264.344736,85.4831718 L267.726681,85.4831718 C268.236276,85.4831718 269.900217,85.3723348 269.900217,83.9384435 C269.900217,82.549486 268.236276,82.4416446 267.726681,82.4416446 L261.284165,82.4436417 Z M273.341231,104.002937 L281.872184,104.002937 L273.437344,93.3256388 L274.549641,92.7814391 C276.116469,92.0145668 279.761722,89.6230837 279.761722,83.9853744 C279.762723,77.9182966 275.623895,73.9970631 269.21742,73.9970631 L255.100951,73.9970631 L262.067078,80.4445815 L267.72568,80.4445815 C270.223594,80.4445815 271.901552,81.8485169 271.901552,83.9384435 C271.901552,86.0563289 270.223594,87.4802349 267.72568,87.4802349 L266.34607,87.4802349 L266.34607,95.6332452 L273.341231,104.002937 Z" id="Shape"></path>
        </g>
    </g>
</svg>